<svg width="16" height="16" xmlns="http://www.w3.org/2000/svg">

 <title/>
 <g>
  <title>background</title>
  <rect fill="none" id="canvas_background" height="18" width="18" y="-1" x="-1"/>
 </g>
 <g>
  <title>Layer 1</title>
  <circle fill="#525967" id="svg_1" r="7.85" cy="7.937622" cx="8.000121" class="cls-1"/>
  <path fill="#454b57" id="svg_2" d="m8.000121,0.687622a7.25,7.25 0 1 1 -7.25,7.25a7.26,7.26 0 0 1 7.25,-7.25m0,-0.6a7.85,7.85 0 1 0 7.85,7.85a7.85,7.85 0 0 0 -7.85,-7.85z" class="cls-2"/>
  <rect stroke="null" x="-0.124997" y="-0.062498" fill="none" id="svg_3" width="16.06274" height="16.187737" class="cls-3"/>
  <path fill="#0acf83" id="path0_fill" d="m6.500121,12.547622a1.54,1.54 0 0 0 1.54,-1.54l0,-1.57l-1.54,0a1.54,1.54 0 0 0 0,3.08l0,0.03z" class="cls-4"/>
  <path fill="#a259ff" id="path1_fill" d="m4.920121,7.937622a1.54,1.54 0 0 1 1.58,-1.5l1.5,0l0,3l-1.5,0a1.54,1.54 0 0 1 -1.58,-1.5z" class="cls-5"/>
  <path fill="#f24e1e" id="path1_fill-2" d="m4.920121,4.857622a1.54,1.54 0 0 1 1.58,-1.53l1.5,0l0,3.11l-1.5,0a1.54,1.54 0 0 1 -1.58,-1.58z" class="cls-6"/>
  <path fill="#ff7262" id="path2_fill" d="m8.000121,3.327622l1.5,0a1.54,1.54 0 0 1 0,3.11l-1.5,0l0,-3.11z" class="cls-7"/>
  <path fill="#1abcfe" id="path3_fill" d="m11.080121,7.937622a1.54,1.54 0 1 1 -1.58,-1.5a1.54,1.54 0 0 1 1.58,1.5z" class="cls-8"/>
 </g>
</svg>